<svg width="40" height="36" viewBox="0 0 40 36" fill="none" xmlns="http://www.w3.org/2000/svg">
<path d="M39.3623 28.833L24.0733 2.35171C23.2232 0.879216 21.7004 0 20 0C18.2996 0 16.7768 0.879216 15.9266 2.35171L0.637674 28.833C-0.212558 30.3056 -0.212558 32.0639 0.637674 33.5365C1.48791 35.009 3.01056 35.8882 4.71102 35.8882H35.2889C36.9893 35.8882 38.512 35.009 39.3623 33.5365C40.2126 32.0639 40.2126 30.3056 39.3623 28.833ZM37.3328 32.3648C36.9062 33.1037 36.1421 33.5448 35.2889 33.5448H4.71102C3.85774 33.5448 3.09368 33.1037 2.66712 32.3648C2.24056 31.6259 2.24056 30.7437 2.66712 30.0048L17.9562 3.52351C18.3828 2.7846 19.1468 2.34351 20 2.34351C20.8532 2.34351 21.6173 2.7846 22.0439 3.52351L37.3329 30.0048C37.7594 30.7437 37.7594 31.6259 37.3328 32.3648Z" fill="white"/>
<path d="M21.1716 11.6948H18.8281V23.4121H21.1716V11.6948Z" fill="white"/>
<path d="M19.9998 25.7559C19.1384 25.7559 18.4375 26.4567 18.4375 27.3182C18.4375 28.1797 19.1384 28.8805 19.9998 28.8805C20.8612 28.8805 21.5622 28.1797 21.5622 27.3182C21.5622 26.4567 20.8613 25.7559 19.9998 25.7559Z" fill="white"/>
</svg>
