<?xml version="1.0" encoding="iso-8859-1"?>
<!-- Generator: Adobe Illustrator 19.0.0, SVG Export Plug-In . SVG Version: 6.00 Build 0)  -->
<svg version="1.1" id="Capa_1" xmlns="http://www.w3.org/2000/svg" xmlns:xlink="http://www.w3.org/1999/xlink" x="0px" y="0px"
	 viewBox="0 0 512 512" style="enable-background:new 0 0 512 512;" xml:space="preserve">
<g>
	<g>
		<path d="M97.684,452.716c-16.345,0-29.642,13.298-29.642,29.642c0,16.345,13.297,29.642,29.642,29.642h346.274v-59.284H97.684z"/>
	</g>
</g>
<g>
	<g>
		<path d="M102.285,0C83.403,0,68.042,15.361,68.042,34.243v396.394c8.739-5.028,18.856-7.921,29.642-7.921h346.274V0H102.285z
			 M389.453,246.112c0,73.586-59.867,133.453-133.453,133.453s-133.453-59.867-133.453-133.453v-69.495
			c0-73.586,59.867-133.453,133.453-133.453s133.453,59.867,133.453,133.453V246.112z"/>
	</g>
</g>
<g>
	<g>
		<path d="M256,73.164c-57.044,0-103.453,46.409-103.453,103.453v69.495c0,57.044,46.409,103.453,103.453,103.453
			s103.453-46.409,103.453-103.453v-69.495C359.453,119.573,313.044,73.164,256,73.164z M272.414,308.436h-32.828v-30h32.828
			V308.436z M271,222.426v21.768h-30V194.5h15c13.842,0,25.104-11.262,25.104-25.104c0-13.842-11.262-25.103-25.104-25.103
			c-13.842,0-25.104,11.261-25.104,25.104h-30c0-30.384,24.72-55.104,55.104-55.104c30.384,0,55.104,24.719,55.104,55.104
			C311.104,194.582,294.117,215.877,271,222.426z"/>
	</g>
</g>
<g>
</g>
<g>
</g>
<g>
</g>
<g>
</g>
<g>
</g>
<g>
</g>
<g>
</g>
<g>
</g>
<g>
</g>
<g>
</g>
<g>
</g>
<g>
</g>
<g>
</g>
<g>
</g>
<g>
</g>
</svg>
